# xmcd CD database file generated by OrangeCD 5.2
#
# Track frame offsets:
#	183
#	12048
#	28030
#	38588
#	49000
#	64350
#	74580
#	85375
#	98853
#	112735
#	125783
#	139065
#	150123
#	165858
#	175403
#	188785
#
# Disc length: 2677 seconds
#
# Revision: 2
# Processed by: cddbd v1.5.1PL0 Copyright (c) Steve Scherf et al.
# Submitted via: OrangeCD 5.2
#
DISCID=cb0a7310
DTITLE=Narvel Felts - Pink And Golden Days
DYEAR=1991
DGENRE=Country
TTITLE0=Foggy Misty Morning
TTITLE1=My Innocent Age
TTITLE2=3000 Miles
TTITLE3=Pink And Black Days
TTITLE4=Four Seasons Of Life
TTITLE5=Loretta
TTITLE6=The Impossible Dream Came True
TTITLE7=Drift Away
TTITLE8=Even Now
TTITLE9=Lonely Teardrops
TTITLE10=Somebody Hold Me
TTITLE11=From Memphis To Malden
TTITLE12=Reconsider Me
TTITLE13=Narvel Felts (with Stephen Ackles) - Hillbilly Cats
TTITLE14=Funny How Time Slips Away
TTITLE15=I Can Wrap Me Arms Around The World
EXTD=
EXTT0=
EXTT1=
EXTT2=
EXTT3=
EXTT4=
EXTT5=
EXTT6=
EXTT7=
EXTT8=
EXTT9=
EXTT10=
EXTT11=
EXTT12=
EXTT13=
EXTT14=
EXTT15=
PLAYORDER=
